<svg width="1200" height="760" viewBox="0 0 1200 760" fill="none" xmlns="http://www.w3.org/2000/svg">
  <rect width="1200" height="760" rx="36" fill="#F6F8FB"/>
  <rect x="94" y="64" width="1012" height="632" rx="28" fill="#FFFFFF" stroke="#D9E2EC" stroke-width="6"/>
  <rect x="154" y="122" width="190" height="44" rx="16" fill="#2C4A68"/>
  <rect x="154" y="206" width="516" height="34" rx="17" fill="#1F2C3B"/>
  <rect x="154" y="270" width="720" height="18" rx="9" fill="#8D98A8"/>
  <rect x="154" y="314" width="660" height="18" rx="9" fill="#8D98A8"/>
  <rect x="154" y="396" width="780" height="132" rx="24" fill="#F4F7FA"/>
  <rect x="186" y="434" width="180" height="18" rx="9" fill="#2C4A68"/>
  <rect x="186" y="472" width="680" height="18" rx="9" fill="#7B8797"/>
  <rect x="186" y="506" width="610" height="18" rx="9" fill="#7B8797"/>
  <rect x="154" y="560" width="240" height="40" rx="20" fill="#EDF5FF"/>
  <rect x="420" y="560" width="240" height="40" rx="20" fill="#FFF3E7"/>
</svg>
