<svg width="1200" height="760" viewBox="0 0 1200 760" fill="none" xmlns="http://www.w3.org/2000/svg">
  <rect width="1200" height="760" rx="36" fill="#F6F8FB"/>
  <rect x="70" y="70" width="1060" height="620" rx="28" fill="#FFFFFF" stroke="#D9E2EC" stroke-width="6"/>
  <rect x="130" y="120" width="220" height="48" rx="18" fill="#DCEBFA"/>
  <rect x="130" y="190" width="520" height="26" rx="13" fill="#1F2C3B"/>
  <rect x="130" y="236" width="400" height="24" rx="12" fill="#9AA7B7"/>
  <rect x="760" y="132" width="260" height="420" rx="34" fill="#EDF5FF"/>
  <circle cx="890" cy="300" r="118" fill="#B8D4F2"/>
  <circle cx="890" cy="300" r="72" fill="#F3C86B"/>
  <rect x="158" y="324" width="520" height="244" rx="28" fill="#FFF3E7"/>
  <rect x="188" y="364" width="220" height="22" rx="11" fill="#1F2C3B"/>
  <rect x="188" y="404" width="420" height="20" rx="10" fill="#718095"/>
  <rect x="188" y="440" width="380" height="20" rx="10" fill="#718095"/>
  <rect x="188" y="512" width="180" height="34" rx="17" fill="#2C4A68"/>
</svg>
