<svg width="1200" height="800" viewBox="0 0 1200 800" fill="none" xmlns="http://www.w3.org/2000/svg">
  <rect width="1200" height="800" rx="48" fill="#F3EADD"/>
  <rect x="74" y="64" width="1052" height="672" rx="34" fill="#FFFDF8" stroke="#D8C7AB" stroke-width="8"/>
  <rect x="126" y="124" width="208" height="44" rx="22" fill="#D9EAF2"/>
  <rect x="126" y="214" width="486" height="56" rx="20" fill="#1D2732"/>
  <rect x="126" y="308" width="452" height="24" rx="12" fill="#D4C6AF"/>
  <rect x="126" y="350" width="418" height="24" rx="12" fill="#D4C6AF"/>
  <rect x="126" y="432" width="280" height="214" rx="28" fill="#F8F0E0"/>
  <rect x="460" y="432" width="280" height="214" rx="28" fill="#E7F0F4"/>
  <rect x="794" y="432" width="280" height="214" rx="28" fill="#FFF0D5"/>
  <rect x="166" y="472" width="146" height="28" rx="14" fill="#0F5C80"/>
  <rect x="500" y="472" width="146" height="28" rx="14" fill="#0F5C80"/>
  <rect x="834" y="472" width="146" height="28" rx="14" fill="#0F5C80"/>
</svg>
