<svg width="1200" height="800" viewBox="0 0 1200 800" fill="none" xmlns="http://www.w3.org/2000/svg">
  <rect width="1200" height="800" rx="48" fill="#EEF2E0"/>
  <rect x="74" y="64" width="1052" height="672" rx="34" fill="#FFFDF8" stroke="#C7D2A0" stroke-width="8"/>
  <rect x="120" y="126" width="334" height="498" rx="30" fill="#F6F9EB"/>
  <rect x="486" y="126" width="594" height="142" rx="30" fill="#0F5C80"/>
  <rect x="486" y="304" width="594" height="320" rx="30" fill="#F8F3E5"/>
  <rect x="152" y="170" width="180" height="28" rx="14" fill="#7A8A48"/>
  <rect x="152" y="226" width="236" height="20" rx="10" fill="#D4DDB7"/>
  <rect x="152" y="262" width="216" height="20" rx="10" fill="#D4DDB7"/>
  <rect x="530" y="176" width="190" height="30" rx="15" fill="#F2A541"/>
  <rect x="530" y="360" width="486" height="24" rx="12" fill="#D7CBB5"/>
  <rect x="530" y="402" width="456" height="24" rx="12" fill="#D7CBB5"/>
  <rect x="530" y="444" width="502" height="24" rx="12" fill="#D7CBB5"/>
  <rect x="530" y="510" width="220" height="68" rx="24" fill="#7A8A48"/>
</svg>
